<?xml version="1.0" encoding="UTF-8"?>
<!DOCTYPE svg PUBLIC "-//W3C//DTD SVG 1.1//EN" "http://www.w3.org/Graphics/SVG/1.1/DTD/svg11.dtd">
<!-- Creator: CorelDRAW 2020 (64-Bit) -->
<svg xmlns="http://www.w3.org/2000/svg" xml:space="preserve" width="190.711mm" height="46.3118mm" version="1.1" style="shape-rendering:geometricPrecision; text-rendering:geometricPrecision; image-rendering:optimizeQuality; fill-rule:evenodd; clip-rule:evenodd"
viewBox="0 0 18837.99 4574.56"
 xmlns:xlink="http://www.w3.org/1999/xlink"
 xmlns:xodm="http://www.corel.com/coreldraw/odm/2003">
 <defs>
  <style type="text/css">
   <![CDATA[
    .fil1 {fill:#FEFEFE}
    .fil0 {fill:#6BC6D9}
    .fil4 {fill:#FEFEFE;fill-rule:nonzero}
    .fil2 {fill:#2B2A29;fill-rule:nonzero}
    .fil3 {fill:#6BC6D9;fill-rule:nonzero}
   ]]>
  </style>
 </defs>
 <g id="Layer_x0020_1">
  <metadata id="CorelCorpID_0Corel-Layer"/>
  <g id="_1882124972880">
   <polygon class="fil0" points="8589.47,0 18837.99,0 18168.8,3703.83 9796.97,3703.83 "/>
   <polygon class="fil1" points="822.15,0 8589.47,0 9796.97,3703.83 152.96,3703.83 "/>
   <path class="fil2" d="M7862.21 1682.13l133.95 410.84 -403.59 0 269.64 -410.84zm-1178.85 957.27l547.17 0 112.51 -170.5 775.66 0 55.59 170.5 497.56 0 -486.66 -1492.81c-27.27,-83.68 -107.78,-82.98 -107.78,-82.98l-222.34 0c-80.72,2.99 -143.63,17.79 -186.65,82.98l-985.07 1492.81zm-3452.91 -1166.09c41.03,-227.62 -113.06,-409.71 -343.99,-409.71l-1124.59 0c-49.19,0 -95.88,37.49 -104.58,85.62l-269.26 1490.18 475.66 0 71.15 -395.08c1.76,-9.74 10.9,-17.65 20.67,-17.65l720.66 -0.38c230.98,-0.13 448.72,-167.5 489.67,-394.69l64.6 -358.29zm-530.64 297.44c-7.71,42.91 -49.94,77.74 -93.5,77.74l-581.73 0c-10.14,0 -16.48,-7.51 -14.65,-17.65l62.25 -345.49c1.75,-9.8 11.27,-17.67 21.03,-17.67l581.71 0c43.94,0 73.25,34.94 65.35,78.12l-40.46 224.96zm215.93 868.65l547.18 0 112.49 -170.5 775.69 0 55.57 170.5 497.57 0 -486.69 -1492.81c-27.26,-83.68 -107.77,-82.98 -107.77,-82.98l-222.34 0c-80.74,2.99 -143.63,17.79 -186.65,82.98l-985.06 1492.81zm1178.86 -957.27l133.92 410.84 -403.58 0 269.65 -410.84zm1369.65 957.27l71.37 -395.08c1.72,-9.41 10.75,-17.65 20.54,-17.65l179.87 -0.19c18.04,-0.03 31.18,9.93 40.19,23.29l262.99 389.63 581.54 0 -260.18 -384.78c-5.54,-8.22 0.5,-22.82 10.69,-27.95 8.8,-4.44 82.56,-18 136.9,-48.19 130.62,-72.55 232.13,-200.29 258.46,-346.5l64.58 -358.66c41.01,-227.63 -112.65,-409.71 -343.99,-409.71l-1124.01 0c-49.21,0 -96.39,37.12 -105.16,85.62l-269.22 1490.18c158.45,0.66 316.97,0.66 475.43,0zm208.57 -1154.41c1.68,-9.35 11.39,-17.32 21.5,-17.32l581.74 0c43.94,0 73.18,35 65.32,78.12l-40.83 224.58c-7.77,42.83 -49.57,77.74 -93.5,77.74l-581.72 0c-9.75,0 -16.46,-7.57 -14.64,-17.65l62.13 -345.47zm3642.6 741.68l134.79 413.44c160.39,-0.14 298.23,-0.34 458.61,-0.34 230.98,0 451.81,-184.4 492.74,-411.23l137.07 -758.99c41.11,-227.62 -113.81,-405.96 -345.13,-405.96l-1056.81 0c-49.2,0 -94.89,33.45 -103.64,81.86l-25.03 138.39 307.39 942.82 128.12 -709.04c5.27,-29.29 33.42,-52.57 63.09,-52.57l502.1 0c29.69,0 49.21,23.28 43.95,52.57l-118.68 656.47c-5.25,29.3 -33.42,52.58 -62.69,52.58l-555.88 0zm2831.32 -1163.06l-909.97 0c-230.95,0 -451.69,178.77 -492.71,405.96l-137.06 758.99c-40.94,226.83 113.04,411.23 343.98,411.23l909.97 0c230.94,0 451.77,-184.4 492.7,-411.23l137.08 -758.99c41.04,-227.2 -113.09,-405.96 -343.99,-405.96zm-261.01 1110.86c-5.25,28.92 -33.43,52.58 -63.09,52.58l-685.01 0c-29.29,0 -49.18,-23.66 -43.92,-52.58l118.66 -656.84c5.25,-28.91 33.42,-52.19 63.09,-52.19l684.62 0c29.68,0 49.2,23.28 44.33,52.19l-118.68 656.84zm1016.6 465.31l962.83 -0.38 74.59 -412.73 -847.77 0c-29.64,0 -49.18,-23.28 -43.92,-52.58l118.66 -653.83c5.25,-28.92 33.42,-52.59 62.71,-52.59l847.43 0 73.01 -404.07 -960.44 0c-230.58,0 -449.66,179.96 -491.38,406.33l-139.71 757.87c-41.36,227.36 112.97,411.97 343.98,411.97zm1158.18 -0.38l475.68 0 36.48 -201.92c2.24,-12.39 9.71,-25.31 19.46,-34.72l217.68 -209.86 301.9 446.5 581.54 0 -523.73 -774.76c-4.38,-6.47 -2.64,-16.15 4.13,-22.54l807.6 -778.49 -581.95 0 -666.91 642.92c-23.61,22.75 -26.37,-7.98 -25.18,-14.64l113.67 -628.28 -475.69 0 -284.7 1575.8zm2914.29 0.38c231.33,0 451.76,-184.02 492.7,-411.23l26.67 -147.59c41.3,-227.2 -113.04,-411.22 -344,-411.22l-711.67 0c-29.65,0 -49.18,-23.66 -43.94,-52.59l18.04 -99.14c5.33,-29.27 32.98,-50.33 62.3,-50.33l1051.9 0 73 -404.07 -1141.37 0c-230.97,0 -451.81,184.01 -492.74,411.22l-29.28 160.73c-40.93,227.57 113.03,411.61 344.36,411.61l711.67 0c29.68,0 49.21,23.28 43.96,52.57l-13.53 74.36c-5.26,29.3 -33.42,52.58 -62.7,52.58l-1078.68 0 -74.57 412.73c389.17,0 779.24,0.38 1167.9,0.38z"/>
   <path class="fil3" d="M9008.02 1283.85l-244.93 1355.55c254.58,1.07 432.46,0.96 687.11,0.71l-442.18 -1356.26z"/>
   <path class="fil4" d="M105.92 4110.46c-14.49,0 -28.31,11.51 -30.97,25.76l-74.54 412.46c-2.55,14.26 7.08,25.77 21.56,25.77l79.19 0c14.48,0 28.3,-11.51 30.85,-25.77l29.63 -164.21 54.3 174.93c2.66,9.19 10.83,15.04 21,15.04l104.71 0c10.3,0 20.67,-5.86 26.54,-15.04l117.66 -175.72 -29.85 164.99c-2.55,14.26 7.07,25.77 21.55,25.77l79.06 0c14.5,0 28.31,-11.51 30.98,-25.77l74.53 -412.46c2.64,-14.25 -7.08,-25.76 -21.56,-25.76l-101.5 0c-10.3,0 -20.58,5.86 -26.55,14.93l-192.85 289.28c-2.98,4.65 -10.27,3.44 -11.93,-1.99l-79.31 -287.29c-2.64,-9.07 -10.84,-14.93 -21.01,-14.93l-101.49 0zm1386.7 -1.77l-267.95 0c-68,0 -133.03,54.3 -145.06,121.2l-40.37 223.47c-12.07,66.79 33.29,121.09 101.29,121.09l267.92 0c68.02,0 133.04,-54.3 145.09,-121.09l40.36 -223.47c12.07,-66.9 -33.27,-121.2 -101.28,-121.2zm-76.86 328.75c-1.55,8.52 -9.86,15.48 -18.58,15.48l-201.69 0c-8.62,0 -14.49,-6.95 -12.96,-15.48l34.96 -193.41c1.55,-8.5 9.84,-15.36 18.57,-15.36l201.59 0c8.74,0 14.5,6.86 13.06,15.36l-34.94 193.41zm576.58 137.01l349.42 0c63.94,0 125.08,-50.98 136.34,-113.9l7.42 -40.92c1.77,-9.6 2.99,-18.57 3.09,-26.98 0.23,-10.51 -1.32,-20.35 -5.62,-30.62 -1.02,-2.55 -15.82,-29.87 -17.59,-28.32 18.24,-16.58 31.63,-38.26 35.94,-62.25 0.23,-1.21 0.1,-2.21 0.66,-3.32l6.76 -37.15c12.04,-67.02 -33.29,-121.2 -101.4,-121.2l-330.97 0c-14.47,0 -28.3,11.5 -30.95,25.76l-74.65 413.13c-2.55,14.26 7.07,25.77 21.56,25.77zm145.3 -174.16c0.53,-2.87 3.32,-5.21 6.18,-5.21l183.1 0c12.96,0 21.46,10.29 19.26,23.02l-2.33 12.82c-2.3,12.71 -14.71,23 -27.64,23l-183 0c-2.99,0 -4.88,-2.32 -4.33,-5.2l8.75 -48.43zm30.5 -169.2c0.56,-2.76 3.32,-5.09 6.2,-5.09l171.28 0c12.94,0 21.57,10.29 19.24,23.02l-2.3 12.82c-2.35,12.6 -14.61,22.9 -27.56,22.9l-171.27 0c-2.98,0 -4.88,-2.22 -4.32,-5.11l8.72 -48.54zm827.94 -120.85c-14.48,0 -28.3,11.49 -30.85,25.76l-74.65 412.68c-2.55,14.26 7.09,25.77 21.55,25.77l87.7 0c14.48,0 28.2,-11.51 30.86,-25.77l74.51 -412.68c2.65,-14.27 -6.95,-25.76 -21.44,-25.76l-87.68 0zm549.27 25.76l-74.65 412.68c-2.55,14.26 7.06,25.77 21.56,25.77l342.92 0c14.47,0 28.31,-11.51 30.85,-25.77l12.72 -70.1c2.54,-14.27 -7.19,-25.76 -21.68,-25.76l-213.3 0c-8.74,0 -14.51,-6.86 -12.94,-15.5l54.4 -301.32c2.65,-14.27 -6.98,-25.76 -21.44,-25.76l-87.59 0c-14.5,0 -28.33,11.49 -30.85,25.76zm923.79 178.04l142.99 251.24c3.97,5.74 10.63,9.18 18.45,9.18l96 0c14.49,0 28.31,-11.51 30.85,-25.77l74.63 -412.46c2.44,-14.25 -7.19,-25.88 -21.66,-25.88l-87.01 0c-14.49,0 -28.32,11.63 -30.86,25.77l-38.82 214.75c-0.99,5.63 -8.5,7.07 -11.83,2.1l-131.36 -233.44c-3.87,-5.87 -10.72,-9.19 -18.37,-9.19l-110.9 0c-14.48,0 -28.3,11.63 -30.96,25.77l-74.55 412.46c-2.54,14.27 7.09,25.76 21.56,25.76l87.02 0c14.51,0 28.32,-11.49 30.86,-25.76l42.03 -232.43c0.99,-5.76 8.61,-7.09 11.93,-2.1zm750.75 260.42l391.14 0c8.73,0 17.01,-6.97 18.57,-15.48l16.37 -90.9c1.53,-8.51 -4.21,-15.49 -12.94,-15.49l-271.93 0c-2.87,0 -4.74,-2.32 -4.3,-5.19l8.06 -44.68c0.55,-2.77 3.34,-5.2 6.2,-5.2l218.72 0c8.62,0 16.92,-6.97 18.46,-15.38l14.61 -80.49c1.55,-8.52 -4.31,-15.48 -12.96,-15.48l-218.59 0c-2.98,0 -4.88,-2.33 -4.44,-5.21l8.75 -47.88c0.45,-2.77 3.2,-5.2 6.07,-5.2l271.91 0c8.62,0 17.03,-6.97 18.58,-15.48l15.8 -87.59c1.55,-8.51 -4.3,-15.47 -12.92,-15.47l-391.12 0c-14.51,0 -28.43,11.61 -30.99,25.76l-74.74 413.45c-2.55,14.27 7.19,25.88 21.68,25.88zm1830.36 -464c-14.49,0 -28.31,11.51 -30.97,25.76l-74.54 412.46c-2.55,14.26 7.08,25.77 21.56,25.77l79.19 0c14.47,0 28.3,-11.51 30.85,-25.77l29.63 -164.21 54.29 174.93c2.67,9.19 10.84,15.04 21.01,15.04l104.7 0c10.29,0 20.68,-5.86 26.55,-15.04l117.66 -175.72 -29.85 164.99c-2.55,14.26 7.07,25.77 21.56,25.77l79.04 0c14.49,0 28.32,-11.51 30.97,-25.77l74.55 -412.46c2.64,-14.25 -7.09,-25.76 -21.56,-25.76l-101.51 0c-10.3,0 -20.58,5.86 -26.54,14.93l-192.86 289.28c-2.98,4.65 -10.27,3.44 -11.93,-1.99l-79.28 -287.29c-2.66,-9.07 -10.86,-14.93 -21.03,-14.93l-101.49 0zm1424.6 -0.34l-111.12 0c-9.29,0 -18.68,4.87 -24.88,12.72l-108.25 138.66c-3.11,3.87 -9.4,2.87 -11.39,-1.77l-57.4 -136.9c-3.21,-7.85 -10.95,-12.72 -20.24,-12.72l-111.03 0c-12.16,0 -22.1,13.05 -17.8,23.33l113.03 269.39c0.55,4.63 0.99,9.18 1.53,13.81l-23.87 132.04c-2.54,14.26 7.08,25.77 21.56,25.77l87.57 0c14.5,0 28.31,-11.51 30.98,-25.77l23.79 -132.04c1.99,-4.31 3.75,-8.41 5.72,-12.6l211.24 -270.59c7.94,-10.28 2.76,-23.33 -9.42,-23.33zm501.41 464.33l0 0.11c68,0 133.02,-54.29 145.06,-121.2l57.28 -317.36c2.66,-14.27 -7.07,-25.76 -21.56,-25.76l-87.58 0c-14.49,0 -28.32,11.49 -30.86,25.76l-54.53 301.32c-1.42,8.52 -9.83,15.5 -18.46,15.5l-213.3 0c-14.49,0 -28.32,11.49 -30.86,25.76l-12.72 70.1c-2.55,14.26 7.09,25.77 21.56,25.77l245.96 0zm758.79 -260.42l143 251.24c3.97,5.74 10.61,9.18 18.47,9.18l95.97 0c14.48,0 28.3,-11.51 30.84,-25.77l74.66 -412.46c2.43,-14.25 -7.19,-25.88 -21.66,-25.88l-87.05 0c-14.49,0 -28.31,11.63 -30.85,25.77l-38.82 214.75c-0.99,5.63 -8.5,7.07 -11.82,2.1l-131.37 -233.44c-3.87,-5.87 -10.73,-9.19 -18.34,-9.19l-110.93 0c-14.48,0 -28.3,11.63 -30.96,25.77l-74.54 412.46c-2.52,14.27 7.08,25.76 21.57,25.76l87.03 0c14.49,0 28.32,-11.49 30.86,-25.76l42 -232.43c1.02,-5.76 8.64,-7.09 11.94,-2.1zm833.9 -203.8c-14.46,0 -28.3,11.49 -30.85,25.76l-74.65 412.68c-2.53,14.26 7.09,25.77 21.56,25.77l87.7 0c14.47,0 28.21,-11.51 30.85,-25.77l74.54 -412.68c2.66,-14.27 -6.98,-25.76 -21.44,-25.76l-87.71 0zm496.98 464.21l391.12 0c8.73,0 17.03,-6.97 18.58,-15.48l16.37 -90.9c1.55,-8.51 -4.2,-15.49 -12.95,-15.49l-271.92 0c-2.85,0 -4.75,-2.32 -4.3,-5.19l8.07 -44.68c0.56,-2.77 3.32,-5.2 6.2,-5.2l218.72 0c8.62,0 16.92,-6.97 18.47,-15.38l14.58 -80.49c1.56,-8.52 -4.31,-15.48 -12.94,-15.48l-218.59 0c-2.98,0 -4.88,-2.33 -4.44,-5.21l8.73 -47.88c0.45,-2.77 3.22,-5.2 6.08,-5.2l271.92 0c8.63,0 17.04,-6.97 18.58,-15.48l15.82 -87.59c1.53,-8.51 -4.34,-15.47 -12.96,-15.47l-391.11 0c-14.49,0 -28.41,11.61 -30.97,25.76l-74.74 413.45c-2.56,14.27 7.18,25.88 21.66,25.88zm2263.37 -343.46c12.16,-67.02 -33.27,-121.2 -101.28,-121.2l-330.97 0c-14.49,0 -28.31,11.61 -30.97,25.76l-74.64 413.13c-2.54,14.26 7.08,25.77 21.56,25.77l87.57 0c14.37,0 28.2,-11.51 30.85,-25.77l15.49 -85.69c0.43,-2.88 3.22,-5.21 6.07,-5.21l212.21 -0.1c68.03,0 133.04,-54.3 145.07,-121.2l19.02 -105.49zm-143.75 18.13l-12.51 69.45c-2.42,12.61 -14.69,22.89 -27.53,22.89l-171.27 0c-2.98,0 -4.88,-2.2 -4.33,-5.19l18.91 -104.95c0.56,-2.88 3.32,-5.2 6.2,-5.2l171.29 0c12.93,-0.12 21.56,10.28 19.23,23zm436.16 314.61c2.74,6.64 9.29,10.73 17.11,10.73l111.8 0c8.32,0 16.72,-4.53 21.81,-11.72l17.44 -24.66 9.09 -13.93 224.13 0 11.84 38.38c2.23,7.3 8.31,11.82 15.59,11.82l105.95 0c6.86,0 13.93,-3.97 18.57,-10.61 4.54,-6.64 5.98,-14.83 3.75,-21.56l-132.79 -407.38c-8.64,-24.45 -31.76,-23.78 -31.76,-23.78 -12.27,0 -22.89,-0.22 -32.62,-0.22 -2.88,0 -5.19,0.1 -7.97,0 -1.09,0 -2.3,0 -3.42,0 -7.72,-0.12 -14.71,-0.22 -21.22,0.1l0 0.34c-0.11,0 -0.11,0 -0.24,0.12l0 -0.45c-23.77,0.9 -41.23,5.42 -54.95,23.89l-268.8 407.38c-4.89,6.74 -6.22,14.93 -3.32,21.56zm329.17 -271.25l38.17 120.97 -117.56 0 79.39 -120.97zm656.65 281.98l87.6 0c14.47,0 28.3,-11.51 30.85,-25.77l15.46 -85.69c0.57,-2.78 3.32,-5.21 6.2,-5.21l105.95 -0.1c5.28,0 9.62,2.65 11.82,6.85l49.87 97.42c5.87,11.61 16.36,12.94 48.19,12.38 18.58,0.34 46.9,-1.1 92.55,-1.1 14.62,0 23.67,-15.38 16.38,-28.2l-54.52 -94.99c-1.45,-2.55 0.1,-5.85 3.09,-7.4 42.14,-20.47 75.53,-60.17 83.84,-106.06l19 -105.59c12.18,-67.02 -33.18,-121.2 -101.29,-121.2l-330.98 0c-14.48,0 -28.3,11.5 -30.96,25.76l-74.64 413.13c-2.55,14.26 7.08,25.77 21.56,25.77zm175.94 -343.36c0.43,-2.76 3.19,-5.09 6.19,-5.09l171.28 0c12.95,0 21.45,10.29 19.25,23.02l-12.6 69.44c-2.35,12.6 -14.62,22.89 -27.55,22.89l-171.29 0c-2.88,0 -4.74,-2.21 -4.31,-5.2l19.02 -105.06zm1182.54 -122.41l-267.91 0c-68.02,0 -133.04,54.3 -145.09,121.2l-40.36 223.47c-12.05,66.79 33.27,121.09 101.28,121.09l267.95 0c68.02,0 133.03,-54.3 145.06,-121.09l40.38 -223.47c12.03,-66.9 -33.3,-121.2 -101.31,-121.2zm-76.86 328.75c-1.54,8.52 -9.82,15.48 -18.57,15.48l-201.68 0c-8.63,0 -14.51,-6.95 -12.94,-15.48l34.95 -193.41c1.52,-8.5 9.83,-15.36 18.57,-15.36l201.59 0c8.73,0 14.47,6.86 13.04,15.36l-34.96 193.41zm1351.1 -326.77l-108.7 0c-10.95,0 -21.99,6.76 -27.63,16.93l-120.76 217.83c-2.88,5.3 -11.08,3.75 -12.27,-2.21l-40.73 -216.51c-1.85,-10.17 -10.5,-16.92 -21.55,-16.92l-75.63 0c-10.95,0 -22.11,6.75 -27.63,17.02l-120.22 218.74c-2.88,5.3 -11.04,3.87 -12.26,-2.22l-41.61 -215.73c-1.97,-10.17 -10.49,-16.81 -21.55,-16.81l-108.59 0c-10.95,0 -20.34,10.61 -18.57,20.67l80.06 425.96c1.87,10.29 10.5,17.03 21.57,17.03l91.88 0c10.93,0 22.02,-6.74 27.54,-16.81l118.87 -213.64c2.88,-5.21 11.05,-3.77 12.27,2.2l41.14 211.43c1.99,10.08 10.62,16.81 21.68,16.81l91.76 0c11.06,0 22.13,-6.74 27.77,-17.03l233.98 -425.96c5.64,-10.07 0,-20.79 -10.84,-20.79zm365.04 463.78l391.12 0c8.74,0 17.02,-6.97 18.58,-15.48l16.38 -90.9c1.53,-8.51 -4.21,-15.49 -12.96,-15.49l-271.91 0c-2.87,0 -4.74,-2.32 -4.31,-5.19l8.06 -44.68c0.58,-2.77 3.33,-5.2 6.21,-5.2l218.72 0c8.61,0 16.93,-6.97 18.45,-15.38l14.61 -80.49c1.56,-8.52 -4.31,-15.48 -12.94,-15.48l-218.61 0c-2.98,0 -4.87,-2.33 -4.44,-5.21l8.75 -47.88c0.43,-2.77 3.19,-5.2 6.07,-5.2l271.91 0c8.64,0 17.05,-6.97 18.57,-15.48l15.83 -87.59c1.54,-8.51 -4.33,-15.47 -12.94,-15.47l-391.12 0c-14.49,0 -28.42,11.61 -30.97,25.76l-74.77 413.45c-2.52,14.27 7.2,25.88 21.69,25.88z"/>
  </g>
 </g>
</svg>
